<svg width="533" height="533" viewBox="0 0 533 533" fill="none" xmlns="http://www.w3.org/2000/svg">
<path d="M2.96559 137.829C-1.14398 122.492 7.95777 106.727 23.2949 102.618L395.176 2.97243C410.514 -1.13715 426.278 7.9646 430.388 23.3018L530.033 395.183C534.143 410.52 525.041 426.285 509.704 430.395L137.822 530.04C122.485 534.149 106.721 525.048 102.611 509.711L2.96559 137.829Z" stroke="url(#paint0_linear_31_7714)" stroke-width="2.5"/>
<path d="M2.96559 137.829C-1.14398 122.492 7.95777 106.727 23.2949 102.618L395.176 2.97243C410.514 -1.13715 426.278 7.9646 430.388 23.3018L530.033 395.183C534.143 410.52 525.041 426.285 509.704 430.395L137.822 530.04C122.485 534.149 106.721 525.048 102.611 509.711L2.96559 137.829Z" stroke="url(#paint1_linear_31_7714)" stroke-width="2.5"/>
<path d="M2.96559 137.829C-1.14398 122.492 7.95777 106.727 23.2949 102.618L395.176 2.97243C410.514 -1.13715 426.278 7.9646 430.388 23.3018L530.033 395.183C534.143 410.52 525.041 426.285 509.704 430.395L137.822 530.04C122.485 534.149 106.721 525.048 102.611 509.711L2.96559 137.829Z" stroke="url(#paint2_linear_31_7714)" stroke-opacity="0.68" stroke-width="2.5"/>
<defs>
<linearGradient id="paint0_linear_31_7714" x1="208.913" y1="51.5876" x2="667.582" y2="534.496" gradientUnits="userSpaceOnUse">
<stop/>
<stop offset="1" stop-opacity="0"/>
</linearGradient>
<linearGradient id="paint1_linear_31_7714" x1="-103.872" y1="530.6" x2="431.626" y2="-101.391" gradientUnits="userSpaceOnUse">
<stop offset="0.363941" stop-color="#0E1118"/>
<stop offset="0.477708" stop-color="#0E1218"/>
<stop offset="0.623796" stop-color="#541F90"/>
<stop offset="0.768683" stop-color="#A44FCC"/>
<stop offset="0.915555" stop-color="#C476E9"/>
</linearGradient>
<linearGradient id="paint2_linear_31_7714" x1="202.237" y1="616.743" x2="548.469" y2="28.0748" gradientUnits="userSpaceOnUse">
<stop stop-color="#F97583" stop-opacity="0"/>
<stop offset="0.257032" stop-color="#EC6CB9" stop-opacity="0.75"/>
<stop offset="0.864513" stop-color="#B392F0" stop-opacity="0.5"/>
<stop offset="1" stop-color="#B392F0" stop-opacity="0"/>
</linearGradient>
</defs>
</svg>
